<svg version="1.0" xmlns="http://www.w3.org/2000/svg"
 width="640.000000pt" height="640.000000pt" viewBox="0 0 640.000000 640.000000"
 preserveAspectRatio="xMidYMid meet">

<g transform="translate(0.000000,640.000000) scale(0.100000,-0.100000)"
fill="#000000" stroke="none">
<path d="M2770 6393 c-196 -32 -281 -49 -393 -78 -772 -199 -1445 -677 -1886
-1340 -218 -326 -354 -644 -458 -1070 l-27 -110 -3 -518 -4 -519 31 -156 c65
-333 185 -667 341 -946 430 -771 1113 -1308 1959 -1541 275 -75 507 -105 825
-105 330 0 529 24 825 101 221 58 412 130 615 231 335 168 560 332 851 622
366 366 600 739 765 1215 69 200 132 480 155 691 5 47 9 59 15 45 4 -11 8 94
8 233 1 139 -3 251 -7 248 -5 -3 -14 45 -21 107 -19 179 -50 351 -91 512 -282
1108 -1159 1997 -2259 2290 -317 84 -420 95 -860 94 -196 -1 -367 -4 -381 -6z
m740 -267 c235 -27 522 -98 705 -173 260 -107 413 -186 580 -301 184 -126 273
-200 431 -357 250 -248 415 -477 564 -780 218 -445 309 -838 310 -1340 0 -542
-142 -1041 -426 -1498 -296 -475 -695 -834 -1209 -1087 -317 -156 -580 -235
-950 -286 -158 -22 -523 -25 -690 -5 -1168 138 -2140 958 -2465 2080 -133 458
-158 965 -70 1413 86 437 295 885 579 1243 177 223 419 447 654 603 417 278
821 425 1352 491 116 14 498 12 635 -3z"/>
<path d="M4813 4130 c-114 -21 -229 -80 -277 -143 -69 -91 -86 -219 -40 -317
53 -115 118 -172 414 -363 108 -70 215 -145 239 -168 119 -115 136 -306 35
-401 -54 -51 -119 -71 -220 -70 -182 2 -309 74 -382 217 -25 51 -53 145 -61
209 -3 27 -12 51 -18 54 -10 3 -13 -41 -13 -198 l0 -201 63 -29 c124 -59 203
-73 402 -74 175 -1 182 0 260 28 176 65 265 224 221 396 -39 152 -102 216
-423 431 -138 93 -264 184 -279 202 -43 50 -64 106 -64 170 0 123 87 213 225
231 66 9 198 -15 261 -47 101 -51 173 -160 195 -297 8 -45 17 -70 25 -70 10 0
14 38 16 171 3 162 2 172 -17 185 -26 18 -163 60 -240 73 -90 15 -263 21 -322
11z"/>
<path d="M880 4108 c0 -8 19 -19 46 -26 77 -21 74 4 74 -679 0 -365 -4 -612
-10 -634 -12 -42 -44 -74 -83 -83 -16 -4 -27 -12 -24 -19 5 -17 449 -17 454
-1 2 7 -15 18 -38 25 -24 8 -51 26 -63 42 -20 27 -21 43 -24 308 -3 257 -2
280 14 286 10 3 59 2 111 -4 163 -17 250 -83 287 -217 8 -28 31 -112 51 -186
68 -255 76 -263 304 -264 127 -1 156 2 156 13 0 8 -19 19 -45 25 -61 16 -115
50 -139 89 -11 18 -36 88 -56 157 -65 223 -145 350 -241 379 -21 7 -46 15 -54
18 -8 3 9 11 39 19 126 33 194 82 237 170 48 99 45 303 -6 405 -23 44 -90 106
-139 127 -108 46 -173 53 -518 59 -283 5 -333 3 -333 -9z m652 -50 c103 -47
138 -121 145 -308 9 -203 -30 -307 -132 -359 -44 -23 -63 -26 -192 -30 l-143
-3 0 367 0 368 134 -5 c115 -5 141 -9 188 -30z"/>
<path d="M3173 4085 c-33 -23 -37 -60 -11 -113 13 -26 26 -48 30 -50 4 -2 21
-26 38 -53 26 -40 30 -52 20 -64 -35 -42 -106 11 -97 72 7 39 -2 41 -31 10
-27 -29 -28 -77 -3 -108 26 -33 90 -33 125 0 l25 24 31 -27 c36 -30 66 -33 98
-10 34 23 28 41 -12 36 -32 -4 -36 -1 -85 72 -28 42 -51 81 -51 86 0 6 -4 10
-8 10 -12 0 -42 56 -42 78 0 11 7 28 16 36 14 15 14 16 -3 16 -10 0 -28 -7
-40 -15z"/>
<path d="M2718 4068 c15 -15 17 -261 2 -289 -9 -15 -7 -19 7 -20 10 0 29 -2
43 -3 39 -5 51 3 40 24 -15 27 -13 273 2 288 9 9 -1 12 -47 12 -46 0 -56 -3
-47 -12z"/>
<path d="M2916 4065 c10 -26 -4 -58 -45 -105 -22 -25 -41 -49 -41 -54 0 -11
77 -116 98 -133 9 -7 35 -13 59 -13 l44 0 -24 23 c-30 27 -127 155 -127 167 0
11 79 92 110 112 25 17 25 17 -27 17 -43 1 -51 -2 -47 -14z"/>
<path d="M3488 4068 c15 -15 17 -261 2 -289 -11 -20 -5 -23 60 -21 40 0 41 1
30 21 -15 28 -13 274 2 289 9 9 -1 12 -47 12 -46 0 -56 -3 -47 -12z"/>
<path d="M3687 4061 c6 -23 -15 -65 -56 -111 -17 -19 -31 -39 -31 -44 0 -15
89 -133 105 -140 9 -3 35 -6 58 -6 33 1 38 3 25 11 -21 12 -138 163 -138 178
0 16 51 72 94 102 l39 29 -51 0 c-44 0 -50 -2 -45 -19z"/>
<path d="M3322 3907 c-9 -10 -5 -17 16 -29 32 -19 56 -10 50 18 -4 23 -50 31
-66 11z"/>
<path d="M2538 3605 c-80 -28 -143 -70 -191 -126 -177 -207 -143 -593 66 -747
83 -62 148 -84 262 -89 171 -9 289 31 383 130 59 64 84 110 112 208 36 130 19
304 -40 420 -31 59 -116 147 -170 174 -122 62 -298 75 -422 30z m275 -19 c38
-15 94 -76 113 -123 51 -121 64 -420 26 -570 -26 -102 -41 -131 -88 -172 -48
-43 -75 -52 -155 -52 -80 0 -132 22 -178 78 -63 76 -85 200 -79 436 4 141 9
184 27 240 24 74 65 128 120 157 44 23 165 27 214 6z"/>
<path d="M3678 3611 c-153 -49 -261 -165 -303 -328 -19 -73 -19 -210 0 -291
42 -176 173 -307 343 -343 33 -6 100 -9 158 -7 91 4 109 8 178 41 141 67 223
182 254 359 15 83 15 98 0 185 -34 202 -136 328 -307 383 -84 27 -241 27 -323
1z m277 -34 c55 -31 100 -102 119 -187 37 -162 30 -447 -14 -563 -45 -118
-112 -161 -240 -155 -68 3 -84 7 -122 33 -80 57 -114 159 -125 371 -13 273 41
455 151 505 61 28 178 26 231 -4z"/>
<path d="M1130 1739 l-35 -30 35 7 c19 4 47 6 62 6 27 -1 27 0 12 24 -21 31
-31 30 -74 -7z"/>
<path d="M1219 1703 c-6 -12 -170 -153 -202 -173 l-28 -18 31 -36 32 -35 114
96 c139 116 160 113 107 -16 -3 -8 11 -1 31 15 20 16 36 33 36 37 0 9 -99 131
-110 135 -5 2 -10 -1 -11 -5z"/>
<path d="M5070 1650 c-33 -28 -34 -29 -11 -30 33 0 94 -64 86 -90 -5 -15 -3
-19 10 -14 9 4 33 -8 62 -30 25 -20 57 -36 70 -36 32 0 63 34 62 68 0 15 -3
21 -6 15 -7 -20 -24 -15 -55 14 -17 17 -39 26 -58 26 -27 0 -30 3 -30 32 0 38
-35 75 -71 75 -14 0 -40 -13 -59 -30z"/>
<path d="M4985 1560 c-25 -26 -27 -32 -15 -44 8 -7 60 -54 116 -104 l101 -91
31 32 32 33 -72 64 c-144 130 -155 140 -160 140 -2 0 -17 -14 -33 -30z"/>
<path d="M1607 1298 c-2 -7 -41 -64 -85 -126 l-81 -112 37 -25 c41 -28 52 -31
52 -12 0 6 16 32 35 57 19 25 55 76 81 115 l46 69 -26 23 c-30 26 -51 29 -59
11z"/>
<path d="M4624 1244 l-29 -23 38 -1 c21 0 47 -5 58 -10 23 -13 24 -7 3 25 -22
34 -37 36 -70 9z"/>
<path d="M1723 1216 c0 -34 -33 -75 -66 -83 -18 -4 -26 -10 -23 -19 3 -8 -8
-35 -24 -61 -37 -58 -38 -85 -4 -112 35 -27 68 -28 59 -2 -3 11 3 34 16 55 13
22 19 46 17 61 -5 22 -2 25 22 25 29 0 80 48 80 75 0 16 -57 85 -70 85 -4 0
-7 -11 -7 -24z"/>
<path d="M4531 1180 c-24 -18 -39 -35 -34 -39 6 -3 45 -58 88 -121 43 -63 80
-117 82 -119 1 -2 21 8 43 23 40 26 40 26 20 46 -19 19 -70 95 -70 104 0 9 36
12 58 4 12 -4 22 -5 22 -2 0 12 -30 61 -44 73 -14 12 -16 10 -16 -7 0 -30 -10
-52 -25 -52 -12 0 -68 79 -77 108 -2 9 -17 4 -47 -18z"/>
<path d="M4797 1066 c3 -14 -2 -39 -11 -57 -21 -42 -21 -42 12 -25 48 25 53
38 30 74 -24 38 -37 41 -31 8z"/>
<path d="M4095 961 l-40 -18 33 0 c18 0 46 -10 62 -22 33 -24 35 -22 18 26
-14 38 -19 39 -73 14z"/>
<path d="M2242 928 c-15 -17 -64 -72 -109 -122 -81 -90 -93 -106 -73 -106 6 0
10 4 10 8 0 15 53 72 67 72 8 0 11 4 8 10 -6 10 52 80 68 80 6 0 7 -19 3 -47
-4 -27 -8 -78 -9 -115 l-2 -66 35 -12 c19 -6 41 -14 48 -16 9 -5 12 32 12 164
0 143 -2 171 -15 176 -10 3 -26 -7 -43 -26z"/>
<path d="M3991 925 c-25 -11 -32 -19 -26 -32 3 -10 27 -74 52 -143 25 -69 47
-126 49 -128 4 -5 84 21 84 27 0 3 -11 33 -24 66 -14 32 -22 63 -20 67 8 12
48 10 62 -4 21 -21 23 -3 5 44 l-17 46 -15 -32 c-28 -54 -47 -46 -72 33 -13
39 -28 71 -33 71 -6 -1 -26 -7 -45 -15z"/>
<path d="M2770 790 c0 -11 4 -20 9 -20 5 0 27 -48 49 -107 69 -183 69 -183
101 -183 17 0 31 6 35 16 11 28 6 92 -7 97 -6 2 -28 48 -47 102 -37 103 -49
115 -111 115 -22 0 -29 -5 -29 -20z"/>
<path d="M3511 790 c19 -10 41 -26 48 -34 21 -25 27 -19 23 19 l-4 35 -52 0
-51 -1 36 -19z"/>
<path d="M3422 784 c-45 -31 -50 -101 -11 -143 10 -10 43 -25 73 -31 31 -6 66
-20 78 -30 21 -16 22 -22 11 -49 -11 -29 -10 -30 9 -20 32 17 51 74 38 115
-15 43 -41 61 -111 74 -29 6 -62 19 -73 30 -18 18 -18 20 -2 44 19 30 18 31
-12 10z"/>
<path d="M2980 748 c0 -49 5 -47 13 5 3 20 2 37 -4 37 -5 0 -9 -19 -9 -42z"/>
<path d="M2762 725 c0 -16 2 -22 5 -12 2 9 2 23 0 30 -3 6 -5 -1 -5 -18z"/>
<path d="M2753 645 c0 -27 2 -38 4 -22 2 15 2 37 0 50 -2 12 -4 0 -4 -28z"/>
<path d="M2973 640 c0 -25 2 -35 4 -22 2 12 2 32 0 45 -2 12 -4 2 -4 -23z"/>
<path d="M2742 560 c0 -14 2 -19 5 -12 2 6 2 18 0 25 -3 6 -5 1 -5 -13z"/>
<path d="M3406 528 c4 -24 7 -43 8 -43 1 0 24 2 51 5 47 6 48 7 25 17 -14 6
-36 23 -49 37 -34 36 -42 33 -35 -16z"/>
<path d="M2735 510 c3 -5 8 -10 11 -10 2 0 4 5 4 10 0 6 -5 10 -11 10 -5 0 -7
-4 -4 -10z"/>
</g>
</svg>
